<?xml version="1.0" encoding="UTF-8"?>
<svg version="1.1" xmlns="http://www.w3.org/2000/svg" width="136" height="113">
<path d="M0 0 C44.88 0 89.76 0 136 0 C136 37.29 136 74.58 136 113 C91.12 113 46.24 113 0 113 C0 75.71 0 38.42 0 0 Z " fill="#FEFEFE" transform="translate(0,0)"/>
<path d="M0 0 C9.99370501 8.50433019 14.98177758 17.28646116 16.52734375 30.359375 C16.96034433 40.44468021 13.30714597 50.03521986 7.24609375 57.98046875 C-0.81934798 66.6284146 -9.65127054 71.21969128 -21.41796875 72.203125 C-32.78370283 72.57131075 -41.83951294 69.005175 -50.75390625 61.98046875 C-59.31151469 53.58402055 -63.22879882 43.3167774 -63.44140625 31.48046875 C-63.31131822 19.7518237 -58.86275287 11.35861566 -50.8359375 2.88671875 C-36.92736851 -9.84758081 -15.21845554 -11.16020073 0 0 Z " fill="#FCFBFB" transform="translate(90.75390625,25.01953125)"/>
<path d="M0 0 C9.99370501 8.50433019 14.98177758 17.28646116 16.52734375 30.359375 C16.96034433 40.44468021 13.30714597 50.03521986 7.24609375 57.98046875 C-0.81934798 66.6284146 -9.65127054 71.21969128 -21.41796875 72.203125 C-32.78370283 72.57131075 -41.83951294 69.005175 -50.75390625 61.98046875 C-59.31151469 53.58402055 -63.22879882 43.3167774 -63.44140625 31.48046875 C-63.31131822 19.7518237 -58.86275287 11.35861566 -50.8359375 2.88671875 C-36.92736851 -9.84758081 -15.21845554 -11.16020073 0 0 Z M-50.75390625 6.98046875 C-51.49060547 7.74037109 -51.49060547 7.74037109 -52.2421875 8.515625 C-55.38954173 11.99721153 -57.11734872 15.61631533 -58.75390625 19.98046875 C-59.14578125 20.88796875 -59.53765625 21.79546875 -59.94140625 22.73046875 C-62.46400099 32.82084772 -60.51031649 43.35533023 -55.3984375 52.37109375 C-50.08024164 59.84223217 -42.50221466 66.60038889 -33.3828125 68.625 C-23.69187301 69.93536478 -13.27680053 70.37397545 -4.75390625 64.98046875 C3.85771757 58.41077635 11.24641414 50.93256018 13.24609375 39.98046875 C14.34097827 27.05549047 12.65318654 17.1937 4.14453125 7.015625 C-3.47174338 -1.14914678 -13.07841265 -4.97839145 -24.25390625 -5.58203125 C-34.66668055 -5.12599734 -43.70983122 -0.53209583 -50.75390625 6.98046875 Z " fill="#262626" transform="translate(90.75390625,25.01953125)"/>
<path d="M0 0 C0.7734375 -0.00773437 1.546875 -0.01546875 2.34375 -0.0234375 C4.99824309 0.46706666 5.89704522 1.23263821 7.5 3.375 C7.6875 6.0625 7.6875 6.0625 7.5 8.375 C5.85 8.375 4.2 8.375 2.5 8.375 C2.5 7.055 2.5 5.735 2.5 4.375 C1.18 4.375 -0.14 4.375 -1.5 4.375 C-1.5 10.645 -1.5 16.915 -1.5 23.375 C-0.51 23.045 0.48 22.715 1.5 22.375 C2.23323796 20.35991642 2.23323796 20.35991642 2.5 18.375 C4.15 18.375 5.8 18.375 7.5 18.375 C7.625 21.25 7.625 21.25 7.5 24.375 C5.5 26.375 5.5 26.375 2.96875 26.640625 C1.9890625 26.63546875 1.009375 26.6303125 0 26.625 C-0.9796875 26.63015625 -1.959375 26.6353125 -2.96875 26.640625 C-5.5 26.375 -5.5 26.375 -7.5 24.375 C-7.95091675 20.91556667 -7.82406422 17.42295566 -7.8125 13.9375 C-7.82861328 12.97005859 -7.84472656 12.00261719 -7.86132812 11.00585938 C-7.86197266 10.07708984 -7.86261719 9.14832031 -7.86328125 8.19140625 C-7.86626221 7.34006104 -7.86924316 6.48871582 -7.87231445 5.61157227 C-7.10421279 0.99742187 -4.3388303 -0.0433883 0 0 Z " fill="#FF4244" transform="translate(75.5,46.625)"/>
<path d="M0 0 C4.29 0 8.58 0 13 0 C13 1.32 13 2.64 13 4 C11.68 4 10.36 4 9 4 C9 10.93 9 17.86 9 25 C7.35 25 5.7 25 4 25 C4 18.07 4 11.14 4 4 C2.68 4 1.36 4 0 4 C0 2.68 0 1.36 0 0 Z " fill="#333956" transform="translate(53,48)"/>
<path d="M0 0 C0.8971875 0.5259375 0.8971875 0.5259375 1.8125 1.0625 C0.65234375 1.57296875 0.65234375 1.57296875 -0.53125 2.09375 C-9.13122116 6.09571678 -17.13237758 11.09854518 -21.1875 20.0625 C-21.95927499 22.58418193 -22.68285759 25.10706592 -23.34375 27.66015625 C-24.24925517 30.2383307 -25.44931177 31.97184582 -27.1875 34.0625 C-28.20372863 25.25518522 -24.41585422 18.47325556 -19.2890625 11.46875 C-15.39945471 6.85656685 -6.74685451 -2.89150908 0 0 Z " fill="#2B2B2B" transform="translate(55.1875,20.9375)"/>
<path d="M0 0 C3.55348115 2.79971242 6.82695861 5.77781859 10 9 C9.34 9.66 8.68 10.32 8 11 C7.52691406 10.54109375 7.05382812 10.0821875 6.56640625 9.609375 C-2.4807705 1.21472367 -12.61961778 -2.39943439 -24.9375 -2.125 C-25.71673828 -2.11597656 -26.49597656 -2.10695313 -27.29882812 -2.09765625 C-29.19935447 -2.07433691 -31.09972008 -2.03847586 -33 -2 C-33 -2.66 -33 -3.32 -33 -4 C-21.37492646 -6.1685917 -10.33108468 -6.29348413 0 0 Z " fill="#151515" transform="translate(88,23)"/>
<path d="M0 0 C0.66 0.33 1.32 0.66 2 1 C0.8545847 6.1103144 -0.45478745 10.37234081 -3 15 C-3.66 15 -4.32 15 -5 15 C-4.37321829 11.33827525 -3.35548154 8.1181005 -1.9375 4.6875 C-1.39416016 3.36298828 -1.39416016 3.36298828 -0.83984375 2.01171875 C-0.56269531 1.34785156 -0.28554687 0.68398437 0 0 Z " fill="#242424" transform="translate(104,64)"/>
<path d="M0 0 C3.65392651 1.2179755 3.95831699 2.14396506 5.75 5.4375 C6.19859375 6.24058594 6.6471875 7.04367188 7.109375 7.87109375 C7.40328125 8.57363281 7.6971875 9.27617188 8 10 C7 12 7 12 5 13 C4.73445313 12.38511719 4.46890625 11.77023438 4.1953125 11.13671875 C3.84210938 10.32847656 3.48890625 9.52023438 3.125 8.6875 C2.77695313 7.88699219 2.42890625 7.08648437 2.0703125 6.26171875 C0.97428106 3.8038166 0.97428106 3.8038166 -1 1 C-0.67 0.67 -0.34 0.34 0 0 Z " fill="#303030" transform="translate(97,33)"/>
<path d="M0 0 C0.33 0 0.66 0 1 0 C1.2706664 6.76666011 0.44278222 11.74943919 -4 17 C-4.48736475 10.29873464 -3.07708804 5.93438408 0 0 Z " fill="#343434" transform="translate(32,38)"/>
<path d="M0 0 C4.3177458 0.50797009 8.03302114 1.19682779 12 3 C11.01 4.485 11.01 4.485 10 6 C6.7 5.01 3.4 4.02 0 3 C0 2.01 0 1.02 0 0 Z " fill="#373737" transform="translate(72,18)"/>
<path d="M0 0 C0.66 0.99 1.32 1.98 2 3 C0.02 5.31 -1.96 7.62 -4 10 C-4.99 9.34 -5.98 8.68 -7 8 C-4.69 5.36 -2.38 2.72 0 0 Z " fill="#2C2C2C" transform="translate(98,77)"/>
<path d="M0 0 C1.32 0.66 2.64 1.32 4 2 C0.7 3.32 -2.6 4.64 -6 6 C-6.33 5.01 -6.66 4.02 -7 3 C-3.75 1.375 -3.75 1.375 0 0 Z " fill="#323232" transform="translate(53,20)"/>
<path d="M0 0 C3.25543229 0.34879632 4.01873107 1.02133261 6.25 3.5625 C6.8275 4.366875 7.405 5.17125 8 6 C5 6 5 6 3.61328125 4.6875 C2.40885417 3.125 1.20442708 1.5625 0 0 Z " fill="#101010" transform="translate(90,27)"/>
<path d="M0 0 C0.66 0 1.32 0 2 0 C0.8141763 3.37503669 -0.27573689 5.64722731 -3 8 C-2.25 2.25 -2.25 2.25 0 0 Z " fill="#181818" transform="translate(36,33)"/>
</svg>
